<svg xmlns="http://www.w3.org/2000/svg" viewBox="0 0 1594 1594"><rect width="100%" height="100%" fill="#fff"/><path fill="none" stroke="#000" stroke-width="4" stroke-linecap="square" d="M269 137H1457M137 269H269M401 269H797M1061 269H1193M1325 269H1457M269 401H401M665 401H1061M1193 401H1325M137 533H269M1061 533H1193M269 665H797M929 665H1193M929 797H1061M797 929H929M1061 929H1325M269 1061H665M797 1061H1193M269 1193H401M533 1193H1061M137 1325H269M401 1325H533M797 1325H1061M1193 1325H1325M137 1457H1061M1193 1457H1457M137 137V1457M269 665V929M269 1061V1193M401 269V665M401 797V1061M401 1193V1325M533 269V533M533 665V929M665 401V533M665 797V1193M665 1325V1457M797 533V1061M797 1325V1457M929 137V797M1061 797V929M1061 1193V1325M1193 269V533M1193 665V797M1193 1061V1457M1325 401V1193M1457 137V1457"/><g font-family="Pacifico,'Brush Script MT',cursive" font-size="64" font-weight="bold"><text x="136" y="106" textLength="136" lengthAdjust="spacingAndGlyphs">Start</text><text x="1082" y="1533" textLength="97" lengthAdjust="spacingAndGlyphs">End</text></g></svg>