<svg xmlns="http://www.w3.org/2000/svg" viewBox="0 0 1594 1594"><rect width="100%" height="100%" fill="#fff"/><path fill="none" stroke="#000" stroke-width="4" stroke-linecap="square" d="M137 137H1193M1325 137H1457M269 269H401M665 269H1193M401 401H665M797 401H1061M1193 401H1325M269 533H533M1061 533H1457M929 665H1325M533 797H929M1061 797H1325M137 929H401M665 929H929M1193 929H1457M401 1061H665M929 1061H1325M797 1193H929M1061 1193H1457M533 1325H797M929 1325H1325M137 1457H401M533 1457H1457M137 137V1457M269 401V797M269 929V1325M401 269V401M401 665V929M401 1061V1457M533 137V401M533 533V929M533 1193V1325M665 401V665M665 929V1193M797 401V797M797 1061V1325M929 533V665M929 797V929M929 1061V1193M1061 269V401M1061 533V665M1061 797V1061M1061 1193V1325M1193 401V533M1325 269V401M1325 665V797M1457 137V1457"/><g font-family="Pacifico,'Brush Script MT',cursive" font-size="64" font-weight="bold"><text x="1192" y="106" textLength="136" lengthAdjust="spacingAndGlyphs">Start</text><text x="422" y="1533" textLength="97" lengthAdjust="spacingAndGlyphs">End</text></g></svg>